<svg width="51" height="51" viewBox="0 0 51 51" fill="none" xmlns="http://www.w3.org/2000/svg">
<rect width="51" height="51" rx="12" transform="matrix(-1 0 0 1 51 0)" fill="#135DFF"/>
<rect width="51" height="51" rx="12" transform="matrix(-1 0 0 1 51 0)" fill="#0042D0" fill-opacity="0.5"/>
<path d="M30.9805 24V10H35.8405C37.4671 10 38.8071 10.2933 39.8605 10.88C40.9271 11.4533 41.7138 12.2667 42.2205 13.32C42.7405 14.36 43.0005 15.5867 43.0005 17C43.0005 18.4 42.7405 19.6267 42.2205 20.68C41.7138 21.72 40.9271 22.5333 39.8605 23.12C38.8071 23.7067 37.4671 24 35.8405 24H30.9805ZM33.9805 21.42H35.6605C36.7405 21.42 37.5938 21.2467 38.2205 20.9C38.8471 20.54 39.2871 20.0333 39.5405 19.38C39.8071 18.7133 39.9405 17.92 39.9405 17C39.9405 16.0667 39.8071 15.2733 39.5405 14.62C39.2871 13.9533 38.8471 13.4467 38.2205 13.1C37.5938 12.74 36.7405 12.56 35.6605 12.56H33.9805V21.42Z" fill="white"/>
<path d="M9.98047 41V27H14.8405C16.4671 27 17.8071 27.2933 18.8605 27.88C19.9271 28.4533 20.7138 29.2667 21.2205 30.32C21.7405 31.36 22.0005 32.5867 22.0005 34C22.0005 35.4 21.7405 36.6267 21.2205 37.68C20.7138 38.72 19.9271 39.5333 18.8605 40.12C17.8071 40.7067 16.4671 41 14.8405 41H9.98047ZM12.9805 38.42H14.6605C15.7405 38.42 16.5938 38.2467 17.2205 37.9C17.8471 37.54 18.2871 37.0333 18.5405 36.38C18.8071 35.7133 18.9405 34.92 18.9405 34C18.9405 33.0667 18.8071 32.2733 18.5405 31.62C18.2871 30.9533 17.8471 30.4467 17.2205 30.1C16.5938 29.74 15.7405 29.56 14.6605 29.56H12.9805V38.42Z" fill="white"/>
<mask id="mask0_120_6068" style="mask-type:alpha" maskUnits="userSpaceOnUse" x="6" y="5" width="40" height="40">
<path d="M8 7L44 43" stroke="#135DFF" stroke-width="3"/>
</mask>
<g mask="url(#mask0_120_6068)">
<rect width="31" height="31" transform="matrix(-1 0 0 1 41 10)" fill="white"/>
</g>
</svg>
