<svg width="182" height="51" viewBox="0 0 182 51" fill="none" xmlns="http://www.w3.org/2000/svg">
<rect width="51" height="51" rx="12" transform="matrix(-1 0 0 1 51 0)" fill="#135DFF"/>
<rect width="51" height="51" rx="12" transform="matrix(-1 0 0 1 51 0)" fill="#0042D0" fill-opacity="0.5"/>
<path d="M30.9805 24V10H35.8405C37.4671 10 38.8071 10.2933 39.8605 10.88C40.9271 11.4533 41.7138 12.2667 42.2205 13.32C42.7405 14.36 43.0005 15.5867 43.0005 17C43.0005 18.4 42.7405 19.6267 42.2205 20.68C41.7138 21.72 40.9271 22.5333 39.8605 23.12C38.8071 23.7067 37.4671 24 35.8405 24H30.9805ZM33.9805 21.42H35.6605C36.7405 21.42 37.5938 21.2467 38.2205 20.9C38.8471 20.54 39.2871 20.0333 39.5405 19.38C39.8071 18.7133 39.9405 17.92 39.9405 17C39.9405 16.0667 39.8071 15.2733 39.5405 14.62C39.2871 13.9533 38.8471 13.4467 38.2205 13.1C37.5938 12.74 36.7405 12.56 35.6605 12.56H33.9805V21.42Z" fill="white"/>
<path d="M9.98047 41V27H14.8405C16.4671 27 17.8071 27.2933 18.8605 27.88C19.9271 28.4533 20.7138 29.2667 21.2205 30.32C21.7405 31.36 22.0005 32.5867 22.0005 34C22.0005 35.4 21.7405 36.6267 21.2205 37.68C20.7138 38.72 19.9271 39.5333 18.8605 40.12C17.8071 40.7067 16.4671 41 14.8405 41H9.98047ZM12.9805 38.42H14.6605C15.7405 38.42 16.5938 38.2467 17.2205 37.9C17.8471 37.54 18.2871 37.0333 18.5405 36.38C18.8071 35.7133 18.9405 34.92 18.9405 34C18.9405 33.0667 18.8071 32.2733 18.5405 31.62C18.2871 30.9533 17.8471 30.4467 17.2205 30.1C16.5938 29.74 15.7405 29.56 14.6605 29.56H12.9805V38.42Z" fill="white"/>
<mask id="mask0_120_5300" style="mask-type:alpha" maskUnits="userSpaceOnUse" x="6" y="5" width="40" height="40">
<path d="M8 7L44 43" stroke="#135DFF" stroke-width="3"/>
</mask>
<g mask="url(#mask0_120_5300)">
<rect width="31" height="31" transform="matrix(-1 0 0 1 41 10)" fill="white"/>
</g>
<path d="M62.36 22.5V8.5H67.12C68.7333 8.5 70.0733 8.79333 71.14 9.38C72.2067 9.95333 72.9933 10.7667 73.5 11.82C74.02 12.86 74.28 14.0867 74.28 15.5C74.28 16.9 74.02 18.1267 73.5 19.18C72.9933 20.2333 72.2067 21.0533 71.14 21.64C70.0867 22.2133 68.74 22.5 67.1 22.5H62.36ZM65.16 20.1H66.96C68.08 20.1 68.96 19.92 69.6 19.56C70.2533 19.1867 70.72 18.66 71 17.98C71.28 17.2867 71.42 16.46 71.42 15.5C71.42 14.54 71.28 13.72 71 13.04C70.72 12.3467 70.2533 11.8133 69.6 11.44C68.96 11.0667 68.08 10.88 66.96 10.88H65.16V20.1ZM80.9597 22.74C79.9464 22.74 79.0464 22.5267 78.2597 22.1C77.4864 21.66 76.8797 21.0533 76.4397 20.28C75.9997 19.4933 75.7797 18.5867 75.7797 17.56C75.7797 16.52 75.993 15.6 76.4197 14.8C76.8597 13.9867 77.4664 13.3467 78.2397 12.88C79.0264 12.4133 79.9397 12.18 80.9797 12.18C81.9797 12.18 82.853 12.4 83.5997 12.84C84.3597 13.28 84.9464 13.8733 85.3597 14.62C85.7864 15.3667 85.9997 16.2267 85.9997 17.2C85.9997 17.3333 85.993 17.48 85.9797 17.64C85.9797 17.8 85.9664 17.9733 85.9397 18.16H77.7797V16.46H83.1597C83.1197 15.8467 82.893 15.36 82.4797 15C82.0797 14.6267 81.5797 14.44 80.9797 14.44C80.5264 14.44 80.113 14.5467 79.7397 14.76C79.3664 14.9733 79.073 15.2867 78.8597 15.7C78.6464 16.1133 78.5397 16.64 78.5397 17.28V17.86C78.5397 18.38 78.6397 18.84 78.8397 19.24C79.0397 19.6267 79.3197 19.9267 79.6797 20.14C80.0397 20.3533 80.4597 20.46 80.9397 20.46C81.4197 20.46 81.813 20.36 82.1197 20.16C82.4397 19.96 82.6797 19.7 82.8397 19.38H85.6997C85.513 20.0067 85.193 20.5733 84.7397 21.08C84.2997 21.5867 83.7597 21.9933 83.1197 22.3C82.4797 22.5933 81.7597 22.74 80.9597 22.74ZM91.9491 22.74C91.0157 22.74 90.2091 22.5933 89.5291 22.3C88.8491 21.9933 88.3157 21.5867 87.9291 21.08C87.5424 20.56 87.3157 19.9733 87.2491 19.32H90.0491C90.1024 19.56 90.2024 19.78 90.3491 19.98C90.5091 20.1667 90.7157 20.32 90.9691 20.44C91.2357 20.56 91.5491 20.62 91.9091 20.62C92.2557 20.62 92.5357 20.5733 92.7491 20.48C92.9757 20.3733 93.1424 20.24 93.2491 20.08C93.3691 19.92 93.4291 19.7467 93.4291 19.56C93.4291 19.2933 93.3491 19.0867 93.1891 18.94C93.0291 18.7933 92.7957 18.6733 92.4891 18.58C92.1824 18.4867 91.8157 18.4 91.3891 18.32C90.9091 18.2133 90.4357 18.0933 89.9691 17.96C89.5157 17.8267 89.1024 17.6533 88.7291 17.44C88.3691 17.2133 88.0824 16.9333 87.8691 16.6C87.6557 16.2667 87.5491 15.8533 87.5491 15.36C87.5491 14.76 87.7091 14.22 88.0291 13.74C88.3624 13.26 88.8357 12.88 89.4491 12.6C90.0757 12.32 90.8224 12.18 91.6891 12.18C92.9157 12.18 93.8824 12.46 94.5891 13.02C95.3091 13.5667 95.7357 14.3133 95.8691 15.26H93.2291C93.1624 14.9667 92.9957 14.74 92.7291 14.58C92.4624 14.42 92.1091 14.34 91.6691 14.34C91.2157 14.34 90.8624 14.42 90.6091 14.58C90.3691 14.74 90.2491 14.9533 90.2491 15.22C90.2491 15.3933 90.3291 15.5533 90.4891 15.7C90.6491 15.8333 90.8757 15.9533 91.1691 16.06C91.4757 16.1533 91.8491 16.2467 92.2891 16.34C93.0757 16.5 93.7624 16.6867 94.3491 16.9C94.9357 17.1 95.3957 17.3933 95.7291 17.78C96.0624 18.1533 96.2291 18.7 96.2291 19.42C96.2424 20.06 96.0691 20.6333 95.7091 21.14C95.3624 21.6467 94.8691 22.04 94.2291 22.32C93.5891 22.6 92.8291 22.74 91.9491 22.74ZM98.1722 22.5V12.42H100.972V22.5H98.1722ZM99.5722 11.12C99.0655 11.12 98.6522 10.9733 98.3322 10.68C98.0122 10.3733 97.8522 10 97.8522 9.56C97.8522 9.10667 98.0122 8.73333 98.3322 8.44C98.6522 8.14667 99.0655 8 99.5722 8C100.079 8 100.492 8.14667 100.812 8.44C101.132 8.73333 101.292 9.10667 101.292 9.56C101.292 10 101.132 10.3733 100.812 10.68C100.492 10.9733 100.079 11.12 99.5722 11.12ZM107.619 27.14C106.659 27.14 105.819 27.02 105.099 26.78C104.379 26.5533 103.819 26.2 103.419 25.72C103.032 25.2533 102.839 24.6733 102.839 23.98C102.839 23.5 102.959 23.0467 103.199 22.62C103.452 22.1933 103.819 21.8133 104.299 21.48C104.779 21.1467 105.366 20.86 106.059 20.62L107.079 22.02C106.466 22.2067 106.019 22.4467 105.739 22.74C105.472 23.0333 105.339 23.3533 105.339 23.7C105.339 23.9933 105.439 24.24 105.639 24.44C105.839 24.64 106.106 24.7867 106.439 24.88C106.786 24.9867 107.172 25.04 107.599 25.04C108.012 25.04 108.372 24.9867 108.679 24.88C108.986 24.7867 109.226 24.64 109.399 24.44C109.572 24.24 109.659 24.0067 109.659 23.74C109.659 23.38 109.539 23.0933 109.299 22.88C109.059 22.6667 108.566 22.5333 107.819 22.48C107.152 22.4267 106.552 22.3533 106.019 22.26C105.499 22.1533 105.039 22.0333 104.639 21.9C104.239 21.7533 103.892 21.5933 103.599 21.42C103.319 21.2467 103.099 21.0733 102.939 20.9V20.44L105.099 18.1L107.079 18.72L104.499 21.28L105.319 19.88C105.466 19.96 105.606 20.04 105.739 20.12C105.886 20.1867 106.066 20.2533 106.279 20.32C106.492 20.3733 106.766 20.4267 107.099 20.48C107.446 20.52 107.879 20.5667 108.399 20.62C109.279 20.7 109.999 20.8667 110.559 21.12C111.119 21.36 111.532 21.6933 111.799 22.12C112.079 22.5467 112.219 23.0667 112.219 23.68C112.219 24.28 112.052 24.84 111.719 25.36C111.399 25.8933 110.899 26.32 110.219 26.64C109.539 26.9733 108.672 27.14 107.619 27.14ZM107.639 19.54C106.799 19.54 106.072 19.38 105.459 19.06C104.846 18.7267 104.372 18.2867 104.039 17.74C103.719 17.18 103.559 16.5533 103.559 15.86C103.559 15.18 103.719 14.5667 104.039 14.02C104.372 13.46 104.846 13.0133 105.459 12.68C106.072 12.3467 106.799 12.18 107.639 12.18C108.492 12.18 109.219 12.3467 109.819 12.68C110.432 13.0133 110.899 13.46 111.219 14.02C111.539 14.5667 111.699 15.18 111.699 15.86C111.699 16.5533 111.539 17.18 111.219 17.74C110.899 18.2867 110.432 18.7267 109.819 19.06C109.219 19.38 108.492 19.54 107.639 19.54ZM107.639 17.42C108.132 17.42 108.532 17.2933 108.839 17.04C109.159 16.7733 109.319 16.3867 109.319 15.88C109.319 15.3733 109.159 14.9933 108.839 14.74C108.532 14.4733 108.132 14.34 107.639 14.34C107.146 14.34 106.739 14.4733 106.419 14.74C106.099 14.9933 105.939 15.3733 105.939 15.88C105.939 16.3867 106.099 16.7733 106.419 17.04C106.739 17.2933 107.146 17.42 107.639 17.42ZM109.299 14.38L108.859 12.42H113.019V14.06L109.299 14.38ZM114.851 22.5V12.42H117.311L117.511 14.06C117.818 13.5 118.251 13.0467 118.811 12.7C119.385 12.3533 120.071 12.18 120.871 12.18C121.698 12.18 122.398 12.36 122.971 12.72C123.545 13.0667 123.978 13.5733 124.271 14.24C124.578 14.9067 124.731 15.7267 124.731 16.7V22.5H121.951V16.96C121.951 16.1867 121.785 15.5933 121.451 15.18C121.131 14.7533 120.618 14.54 119.911 14.54C119.485 14.54 119.098 14.6467 118.751 14.86C118.405 15.06 118.131 15.3533 117.931 15.74C117.745 16.1133 117.651 16.5733 117.651 17.12V22.5H114.851ZM131.162 22.5V8.5H135.922C137.535 8.5 138.875 8.79333 139.942 9.38C141.008 9.95333 141.795 10.7667 142.302 11.82C142.822 12.86 143.082 14.0867 143.082 15.5C143.082 16.9 142.822 18.1267 142.302 19.18C141.795 20.2333 141.008 21.0533 139.942 21.64C138.888 22.2133 137.542 22.5 135.902 22.5H131.162ZM133.962 20.1H135.762C136.882 20.1 137.762 19.92 138.402 19.56C139.055 19.1867 139.522 18.66 139.802 17.98C140.082 17.2867 140.222 16.46 140.222 15.5C140.222 14.54 140.082 13.72 139.802 13.04C139.522 12.3467 139.055 11.8133 138.402 11.44C137.762 11.0667 136.882 10.88 135.762 10.88H133.962V20.1ZM149.761 22.74C148.748 22.74 147.848 22.5267 147.061 22.1C146.288 21.66 145.681 21.0533 145.241 20.28C144.801 19.4933 144.581 18.5867 144.581 17.56C144.581 16.52 144.795 15.6 145.221 14.8C145.661 13.9867 146.268 13.3467 147.041 12.88C147.828 12.4133 148.741 12.18 149.781 12.18C150.781 12.18 151.655 12.4 152.401 12.84C153.161 13.28 153.748 13.8733 154.161 14.62C154.588 15.3667 154.801 16.2267 154.801 17.2C154.801 17.3333 154.795 17.48 154.781 17.64C154.781 17.8 154.768 17.9733 154.741 18.16H146.581V16.46H151.961C151.921 15.8467 151.695 15.36 151.281 15C150.881 14.6267 150.381 14.44 149.781 14.44C149.328 14.44 148.915 14.5467 148.541 14.76C148.168 14.9733 147.875 15.2867 147.661 15.7C147.448 16.1133 147.341 16.64 147.341 17.28V17.86C147.341 18.38 147.441 18.84 147.641 19.24C147.841 19.6267 148.121 19.9267 148.481 20.14C148.841 20.3533 149.261 20.46 149.741 20.46C150.221 20.46 150.615 20.36 150.921 20.16C151.241 19.96 151.481 19.7 151.641 19.38H154.501C154.315 20.0067 153.995 20.5733 153.541 21.08C153.101 21.5867 152.561 21.9933 151.921 22.3C151.281 22.5933 150.561 22.74 149.761 22.74ZM162.631 22.74C162.111 22.74 161.651 22.6733 161.251 22.54C160.851 22.42 160.497 22.2467 160.191 22.02C159.884 21.7933 159.624 21.5333 159.411 21.24L159.091 22.5H156.611V8.1H159.411V13.8C159.717 13.3333 160.131 12.9467 160.651 12.64C161.184 12.3333 161.837 12.18 162.611 12.18C163.531 12.18 164.351 12.4133 165.071 12.88C165.804 13.3333 166.377 13.96 166.791 14.76C167.217 15.5467 167.431 16.4533 167.431 17.48C167.431 18.48 167.217 19.38 166.791 20.18C166.377 20.98 165.811 21.6067 165.091 22.06C164.371 22.5133 163.551 22.74 162.631 22.74ZM161.951 20.3C162.457 20.3 162.911 20.18 163.311 19.94C163.711 19.7 164.024 19.3667 164.251 18.94C164.477 18.5133 164.591 18.0267 164.591 17.48C164.591 16.92 164.477 16.4267 164.251 16C164.024 15.5733 163.711 15.24 163.311 15C162.911 14.7467 162.457 14.62 161.951 14.62C161.431 14.62 160.971 14.7467 160.571 15C160.184 15.24 159.877 15.5733 159.651 16C159.424 16.4133 159.311 16.9 159.311 17.46C159.311 18.02 159.424 18.5133 159.651 18.94C159.877 19.3667 160.184 19.7 160.571 19.94C160.971 20.18 161.431 20.3 161.951 20.3ZM173.564 22.5C172.857 22.5 172.231 22.3867 171.684 22.16C171.151 21.9333 170.737 21.56 170.444 21.04C170.151 20.52 170.004 19.8133 170.004 18.92V14.76H168.264V12.42H170.004L170.304 9.64H172.784V12.42H175.424V14.76H172.804V18.94C172.804 19.38 172.897 19.6867 173.084 19.86C173.284 20.0333 173.617 20.12 174.084 20.12H175.404V22.5H173.564ZM62.36 42.5V28.5H67.66C68.7933 28.5 69.7267 28.6933 70.46 29.08C71.2067 29.4667 71.76 29.9867 72.12 30.64C72.4933 31.28 72.68 32 72.68 32.8C72.68 33.5467 72.5 34.2467 72.14 34.9C71.7933 35.5533 71.2467 36.08 70.5 36.48C69.7533 36.8667 68.8 37.06 67.64 37.06H65.16V42.5H62.36ZM69.6 42.5L66.74 36.36H69.78L72.8 42.5H69.6ZM65.16 35.02H67.5C68.2867 35.02 68.8667 34.8267 69.24 34.44C69.6267 34.0533 69.82 33.54 69.82 32.9C69.82 32.2733 69.6333 31.7733 69.26 31.4C68.8867 31.0267 68.2933 30.84 67.48 30.84H65.16V35.02ZM78.8503 42.74C77.837 42.74 76.937 42.5267 76.1503 42.1C75.377 41.66 74.7703 41.0533 74.3303 40.28C73.8903 39.4933 73.6703 38.5867 73.6703 37.56C73.6703 36.52 73.8836 35.6 74.3103 34.8C74.7503 33.9867 75.357 33.3467 76.1303 32.88C76.917 32.4133 77.8303 32.18 78.8703 32.18C79.8703 32.18 80.7436 32.4 81.4903 32.84C82.2503 33.28 82.837 33.8733 83.2503 34.62C83.677 35.3667 83.8903 36.2267 83.8903 37.2C83.8903 37.3333 83.8836 37.48 83.8703 37.64C83.8703 37.8 83.857 37.9733 83.8303 38.16H75.6703V36.46H81.0503C81.0103 35.8467 80.7836 35.36 80.3703 35C79.9703 34.6267 79.4703 34.44 78.8703 34.44C78.417 34.44 78.0036 34.5467 77.6303 34.76C77.257 34.9733 76.9636 35.2867 76.7503 35.7C76.537 36.1133 76.4303 36.64 76.4303 37.28V37.86C76.4303 38.38 76.5303 38.84 76.7303 39.24C76.9303 39.6267 77.2103 39.9267 77.5703 40.14C77.9303 40.3533 78.3503 40.46 78.8303 40.46C79.3103 40.46 79.7036 40.36 80.0103 40.16C80.3303 39.96 80.5703 39.7 80.7303 39.38H83.5903C83.4036 40.0067 83.0836 40.5733 82.6303 41.08C82.1903 41.5867 81.6503 41.9933 81.0103 42.3C80.3703 42.5933 79.6503 42.74 78.8503 42.74ZM85.6997 46.9V32.42H88.1797L88.4997 33.78C88.6997 33.5 88.9464 33.24 89.2397 33C89.533 32.7467 89.8797 32.5467 90.2797 32.4C90.693 32.2533 91.1664 32.18 91.6997 32.18C92.633 32.18 93.4597 32.4133 94.1797 32.88C94.913 33.3467 95.4864 33.98 95.8997 34.78C96.313 35.5667 96.5197 36.4667 96.5197 37.48C96.5197 38.4933 96.3064 39.4 95.8797 40.2C95.453 40.9867 94.8797 41.6067 94.1597 42.06C93.4397 42.5133 92.6264 42.74 91.7197 42.74C90.9864 42.74 90.3464 42.6067 89.7997 42.34C89.2664 42.0733 88.833 41.7 88.4997 41.22V46.9H85.6997ZM91.0397 40.3C91.5464 40.3 91.9997 40.18 92.3997 39.94C92.7997 39.7 93.113 39.3667 93.3397 38.94C93.5664 38.5133 93.6797 38.0267 93.6797 37.48C93.6797 36.92 93.5664 36.4267 93.3397 36C93.113 35.5733 92.7997 35.24 92.3997 35C91.9997 34.7467 91.5464 34.62 91.0397 34.62C90.5197 34.62 90.0597 34.7467 89.6597 35C89.273 35.24 88.9664 35.5733 88.7397 36C88.513 36.4267 88.3997 36.9133 88.3997 37.46C88.3997 38.02 88.513 38.5133 88.7397 38.94C88.9664 39.3667 89.273 39.7 89.6597 39.94C90.0597 40.18 90.5197 40.3 91.0397 40.3ZM103.244 42.74C102.284 42.74 101.417 42.52 100.644 42.08C99.8704 41.6267 99.2571 41 98.8037 40.2C98.3637 39.4 98.1437 38.4933 98.1437 37.48C98.1437 36.44 98.3637 35.52 98.8037 34.72C99.2571 33.92 99.8704 33.3 100.644 32.86C101.417 32.4067 102.29 32.18 103.264 32.18C104.237 32.18 105.11 32.4067 105.884 32.86C106.657 33.3 107.264 33.92 107.704 34.72C108.157 35.5067 108.384 36.42 108.384 37.46C108.384 38.5 108.157 39.42 107.704 40.22C107.25 41.0067 106.637 41.6267 105.864 42.08C105.104 42.52 104.23 42.74 103.244 42.74ZM103.244 40.32C103.684 40.32 104.07 40.2133 104.404 40C104.737 39.7867 105.004 39.4667 105.204 39.04C105.417 38.6133 105.524 38.0867 105.524 37.46C105.524 36.8333 105.424 36.3067 105.224 35.88C105.024 35.4533 104.75 35.1333 104.404 34.92C104.07 34.7067 103.69 34.6 103.264 34.6C102.85 34.6 102.47 34.7067 102.124 34.92C101.777 35.1333 101.504 35.4533 101.304 35.88C101.104 36.3067 101.004 36.8333 101.004 37.46C101.004 38.0867 101.104 38.6133 101.304 39.04C101.504 39.4667 101.77 39.7867 102.104 40C102.45 40.2133 102.83 40.32 103.244 40.32ZM110.31 42.5V32.42H112.79L113.05 34.28C113.303 33.84 113.61 33.4667 113.97 33.16C114.33 32.8533 114.75 32.6133 115.23 32.44C115.71 32.2667 116.23 32.18 116.79 32.18V35.14H115.85C115.45 35.14 115.077 35.1867 114.73 35.28C114.397 35.3733 114.103 35.5267 113.85 35.74C113.61 35.94 113.423 36.22 113.29 36.58C113.17 36.9267 113.11 37.3667 113.11 37.9V42.5H110.31ZM122.752 42.5C122.045 42.5 121.418 42.3867 120.872 42.16C120.338 41.9333 119.925 41.56 119.632 41.04C119.338 40.52 119.192 39.8133 119.192 38.92V34.76H117.452V32.42H119.192L119.492 29.64H121.972V32.42H124.612V34.76H121.992V38.94C121.992 39.38 122.085 39.6867 122.272 39.86C122.472 40.0333 122.805 40.12 123.272 40.12H124.592V42.5H122.752ZM131.108 42.74C130.095 42.74 129.195 42.5267 128.408 42.1C127.635 41.66 127.028 41.0533 126.588 40.28C126.148 39.4933 125.928 38.5867 125.928 37.56C125.928 36.52 126.141 35.6 126.568 34.8C127.008 33.9867 127.615 33.3467 128.388 32.88C129.175 32.4133 130.088 32.18 131.128 32.18C132.128 32.18 133.001 32.4 133.748 32.84C134.508 33.28 135.095 33.8733 135.508 34.62C135.935 35.3667 136.148 36.2267 136.148 37.2C136.148 37.3333 136.141 37.48 136.128 37.64C136.128 37.8 136.115 37.9733 136.088 38.16H127.928V36.46H133.308C133.268 35.8467 133.041 35.36 132.628 35C132.228 34.6267 131.728 34.44 131.128 34.44C130.675 34.44 130.261 34.5467 129.888 34.76C129.515 34.9733 129.221 35.2867 129.008 35.7C128.795 36.1133 128.688 36.64 128.688 37.28V37.86C128.688 38.38 128.788 38.84 128.988 39.24C129.188 39.6267 129.468 39.9267 129.828 40.14C130.188 40.3533 130.608 40.46 131.088 40.46C131.568 40.46 131.961 40.36 132.268 40.16C132.588 39.96 132.828 39.7 132.988 39.38H135.848C135.661 40.0067 135.341 40.5733 134.888 41.08C134.448 41.5867 133.908 41.9933 133.268 42.3C132.628 42.5933 131.908 42.74 131.108 42.74ZM137.957 42.5V32.42H140.437L140.697 34.28C140.951 33.84 141.257 33.4667 141.617 33.16C141.977 32.8533 142.397 32.6133 142.877 32.44C143.357 32.2667 143.877 32.18 144.437 32.18V35.14H143.497C143.097 35.14 142.724 35.1867 142.377 35.28C142.044 35.3733 141.751 35.5267 141.497 35.74C141.257 35.94 141.071 36.22 140.937 36.58C140.817 36.9267 140.757 37.3667 140.757 37.9V42.5H137.957Z" fill="#0B1C54"/>
</svg>
